<svg width="60" height="60" viewBox="0 0 60 60" fill="none" xmlns="http://www.w3.org/2000/svg">
<path fill-rule="evenodd" clip-rule="evenodd" d="M30 60C46.5685 60 60 46.5685 60 30C60 13.4315 46.5685 0 30 0C13.4315 0 0 13.4315 0 30C0 46.5685 13.4315 60 30 60Z" fill="#526ACC"/>
<path d="M35.6181 23.968L37.0711 22.515L38.4851 23.929L37.0321 25.382C38.4678 27.1792 39.161 29.4579 38.9691 31.7501C38.7773 34.0424 37.7151 36.1742 36.0005 37.7077C34.286 39.2412 32.0494 40.0601 29.75 39.9961C27.4507 39.9321 25.2631 38.9901 23.6365 37.3635C22.01 35.737 21.068 33.5494 21.004 31.25C20.94 28.9506 21.7588 26.714 23.2923 24.9995C24.8259 23.285 26.9577 22.2228 29.2499 22.0309C31.5422 21.8391 33.8209 22.5322 35.6181 23.968ZM29.0001 26V32H31.0001V26H29.0001ZM26.0001 19H34.0001V21H26.0001V19Z" fill="white"/>
</svg>
