<svg width="60" height="60" viewBox="0 0 60 60" fill="none" xmlns="http://www.w3.org/2000/svg">
<path fill-rule="evenodd" clip-rule="evenodd" d="M30 60C46.5685 60 60 46.5685 60 30C60 13.4315 46.5685 0 30 0C13.4315 0 0 13.4315 0 30C0 46.5685 13.4315 60 30 60Z" fill="#FF8359"/>
<path d="M35.3333 35.3334C37.5426 35.3334 39.3333 37.124 39.3333 39.3334C39.3333 41.5427 37.5426 43.3334 35.3333 43.3334C33.124 43.3334 31.3333 41.5427 31.3333 39.3334C31.3333 37.124 33.124 35.3334 35.3333 35.3334ZM22 30C24.9466 30 27.3333 32.3867 27.3333 35.3334C27.3333 38.28 24.9466 40.6667 22 40.6667C19.0533 40.6667 16.6666 38.28 16.6666 35.3334C16.6666 32.3867 19.0533 30 22 30ZM33.3333 16.6667C37.384 16.6667 40.6666 19.9494 40.6666 24C40.6666 28.0507 37.384 31.3334 33.3333 31.3334C29.2826 31.3334 26 28.0507 26 24C26 19.9494 29.2826 16.6667 33.3333 16.6667Z" fill="white"/>
</svg>
