<svg width="143" height="98" viewBox="0 0 143 98" fill="none" xmlns="http://www.w3.org/2000/svg">
<path d="M64.0019 34.6106L4.8208 31.8085C4.8208 31.8085 9.98314 17.2806 36.3824 10.9984C61.6367 4.97235 73.6788 8.0356 73.6788 8.0356L64.0019 34.6106Z" fill="#6784FF"/>
<path d="M64.002 34.8567L4.81079 32.0596C4.77172 32.0581 4.73357 32.0472 4.69951 32.028C4.66545 32.0088 4.63646 31.9818 4.61494 31.9491C4.59316 31.9162 4.57913 31.8787 4.57392 31.8396C4.5687 31.8004 4.57242 31.7606 4.58482 31.7231C4.63503 31.5775 10.1087 16.9944 36.2971 10.7524C49.3536 7.63888 58.8196 6.99108 64.4791 7.00614C70.6056 7.00614 73.5935 7.7594 73.7191 7.78953C73.7862 7.81024 73.8434 7.85492 73.8798 7.91508C73.8934 7.94768 73.9005 7.98267 73.9005 8.01802C73.9005 8.05337 73.8934 8.08837 73.8798 8.12097L64.238 34.696C64.2197 34.7436 64.1872 34.7845 64.1451 34.8132C64.1029 34.8419 64.053 34.8571 64.002 34.8567ZM5.18742 31.5725L63.8363 34.3545L73.3223 8.24149C70.3922 7.72337 67.4192 7.48627 64.4439 7.53342H64.3385C58.7141 7.53342 49.3385 8.18625 36.4176 11.2646C22.8589 14.4936 15.0652 19.9371 10.9022 23.9394C7.16599 27.4999 5.61427 30.5983 5.18742 31.5725Z" fill="#282828"/>
<path d="M110.232 82.4728C110.232 82.4728 118.036 77.7926 122.119 67.1063L125.192 27.8263L101.986 42.0579L110.232 82.4728Z" fill="white"/>
<path d="M110.232 82.7238C110.199 82.7305 110.165 82.7305 110.132 82.7238C110.095 82.7067 110.063 82.6815 110.038 82.6502C110.013 82.6189 109.995 82.5822 109.986 82.5431L101.74 42.1482C101.73 42.0974 101.736 42.0447 101.757 41.9972C101.777 41.9497 101.812 41.9096 101.856 41.8821L125.061 27.6505C125.1 27.626 125.146 27.613 125.192 27.613C125.238 27.613 125.283 27.626 125.322 27.6505C125.362 27.6755 125.394 27.7106 125.415 27.7521C125.436 27.7936 125.446 27.84 125.443 27.8865L122.37 67.1464C122.374 67.1697 122.374 67.1935 122.37 67.2167C118.302 77.8578 110.458 82.6636 110.378 82.7088C110.332 82.7288 110.281 82.734 110.232 82.7238ZM102.268 42.1984L110.408 82.061C115.625 78.2968 119.614 73.0748 121.873 67.051L124.886 28.3184L102.268 42.1984Z" fill="#282828"/>
<path d="M112.758 46.8134L64.0021 25.682L76.4861 0.231812C76.4861 0.231812 100.284 1.87894 116.826 14.1571C136.405 28.685 115.877 44.9905 112.758 46.8134Z" fill="#6784FF"/>
<path d="M112.753 47.0645C112.722 47.0716 112.689 47.0716 112.658 47.0645L63.9117 25.9331C63.8804 25.9207 63.8521 25.9017 63.8287 25.8774C63.8053 25.8532 63.7874 25.8242 63.7761 25.7924C63.7626 25.7607 63.7556 25.7265 63.7556 25.692C63.7556 25.6575 63.7626 25.6233 63.7761 25.5916L76.2602 0.141421C76.2823 0.0959317 76.3176 0.0581711 76.3615 0.0330824C76.4054 0.00799372 76.4558 -0.00325332 76.5062 0.000813472C76.7423 0.000813472 100.565 1.79357 116.976 13.9763C122.872 18.3502 125.709 23.3067 125.413 28.7051C124.911 38.1208 114.832 45.9095 112.859 47.0495C112.825 47.0623 112.789 47.0674 112.753 47.0645ZM64.3536 25.5564L112.738 46.5322C114.892 45.2115 124.424 37.6889 124.921 28.6548C125.207 23.4373 122.44 18.6114 116.69 14.358C101.123 2.80796 78.8062 0.673726 76.6469 0.492943L64.3536 25.5564Z" fill="#282828"/>
<path d="M112.753 46.8134L110.232 82.4728L64.0121 61.9439V25.682L112.753 46.8134Z" fill="#282828"/>
<path d="M110.232 82.7239C110.199 82.7305 110.165 82.7305 110.132 82.7239L63.9068 62.19C63.8632 62.1705 63.8262 62.1388 63.8004 62.0987C63.7745 62.0586 63.7609 62.0118 63.7611 61.964V25.682C63.761 25.6412 63.7711 25.601 63.7904 25.5651C63.8097 25.5292 63.8376 25.4986 63.8716 25.4761C63.9083 25.455 63.9498 25.4438 63.9921 25.4438C64.0344 25.4438 64.076 25.455 64.1127 25.4761L112.854 46.6026C112.902 46.6234 112.942 46.6588 112.969 46.7039C112.996 46.7489 113.009 46.8013 113.004 46.8536L110.493 82.508C110.488 82.571 110.46 82.6298 110.413 82.6727C110.367 82.7155 110.306 82.7392 110.242 82.739L110.232 82.7239ZM64.2633 61.7782L110.011 82.0962L112.492 46.9742L64.2834 26.0687L64.2633 61.7782Z" fill="#282828"/>
<path d="M64.012 61.9439L6.58343 61.4669L4.8208 31.8085L64.012 34.6106V61.9439Z" fill="#282828"/>
<path d="M64.0022 62.195L6.57867 61.718C6.5146 61.7181 6.45292 61.6937 6.40624 61.6498C6.35956 61.6059 6.33142 61.5459 6.32758 61.4819L4.56997 31.8436C4.56804 31.8087 4.57328 31.7738 4.58537 31.741C4.59746 31.7081 4.61615 31.6781 4.64028 31.6528C4.66272 31.6247 4.69215 31.6029 4.72564 31.5897C4.75912 31.5765 4.79548 31.5723 4.8311 31.5775L64.0022 34.3545C64.0671 34.3571 64.1284 34.3847 64.1733 34.4315C64.2182 34.4783 64.2433 34.5407 64.2433 34.6056V61.9389C64.242 62.0051 64.2151 62.0682 64.1683 62.115C64.1215 62.1618 64.0584 62.1887 63.9922 62.19L64.0022 62.195ZM6.81971 61.2208L63.7612 61.6878V34.8567L5.08721 32.0696L6.81971 61.2208Z" fill="#282828"/>
<path d="M24.27 86.3144C24.27 86.3144 16.5867 81.7948 11.8462 77.2502C7.10569 72.7055 5.71969 65.9061 5.71969 65.9061L4.8208 46.8737L64.002 44.6541V54.9788L49.9411 70.5863L24.27 86.3144Z" fill="white"/>
<path d="M24.2701 86.5806C24.2258 86.5814 24.1821 86.5692 24.1446 86.5454C24.0643 86.5002 16.381 81.9756 11.6706 77.446C6.96023 72.9164 5.48886 66.0367 5.47379 65.9714L4.56988 46.8888C4.56768 46.855 4.57233 46.8211 4.58355 46.7892C4.59476 46.7573 4.61232 46.7279 4.63516 46.703C4.68267 46.6566 4.74479 46.6282 4.81092 46.6226L64.0021 44.398C64.0355 44.3962 64.0689 44.4016 64.1001 44.4137C64.1312 44.4258 64.1595 44.4444 64.1829 44.4683C64.2083 44.491 64.2286 44.5189 64.2425 44.5501C64.2563 44.5812 64.2634 44.615 64.2632 44.6491V54.9738C64.2615 55.0364 64.2385 55.0967 64.198 55.1445L50.1371 70.7521L50.0819 70.7973L24.4007 86.5303C24.3631 86.5596 24.3177 86.5771 24.2701 86.5806ZM5.0821 47.1148L5.97095 65.891C5.97095 65.9212 7.3921 72.6151 11.997 77.0694C16.3308 81.2374 23.2206 85.4105 24.2501 86.0232L49.7806 70.3905L63.741 54.8834V44.9002L5.0821 47.1148Z" fill="#282828"/>
<path d="M64.002 44.6541L23.7779 70.5863C23.7779 70.5863 12.9862 66.9958 8.06491 58.8204C3.14361 50.645 5.4285 42.0026 5.4285 42.0026L64.002 44.6541Z" fill="#6784FF"/>
<path d="M23.7879 70.8374H23.7126C23.6021 70.8023 12.7601 67.1163 7.84889 58.9661C2.93763 50.8158 5.16226 42.0428 5.18235 41.9574C5.19544 41.9008 5.22858 41.8508 5.27564 41.8166C5.32271 41.7825 5.38053 41.7665 5.43845 41.7716L64.0019 44.398C64.0552 44.4002 64.1065 44.4193 64.1482 44.4526C64.1899 44.4859 64.2199 44.5315 64.2339 44.583C64.2479 44.6345 64.2451 44.6891 64.226 44.7389C64.2068 44.7887 64.1723 44.8311 64.1275 44.86L23.9285 70.7973C23.8859 70.8226 23.8374 70.8364 23.7879 70.8374ZM5.62426 42.2638C5.32797 43.5895 3.87167 51.3883 8.27573 58.6899C12.8254 66.2225 22.5977 69.8984 23.7577 70.3102L63.2135 44.87L5.62426 42.2638Z" fill="#282828"/>
<path d="M64.0121 44.6541V70.5863L24.2701 86.3144L23.788 70.5863L64.0121 44.6541Z" fill="#282828"/>
<path d="M24.2699 86.5806C24.2218 86.5804 24.1747 86.5665 24.1343 86.5404C24.1006 86.5183 24.0726 86.4887 24.0526 86.4538C24.0325 86.4188 24.0209 86.3797 24.0188 86.3395L23.5166 70.6114C23.5168 70.568 23.5274 70.5253 23.5475 70.4869C23.5676 70.4484 23.5966 70.4154 23.6321 70.3905L63.8563 44.4582C63.8948 44.4347 63.9391 44.4223 63.9843 44.4223C64.0295 44.4223 64.0738 44.4347 64.1124 44.4582C64.1516 44.4803 64.1844 44.5124 64.2073 44.5512C64.2302 44.59 64.2425 44.6341 64.2429 44.6792V70.6114C64.2426 70.6623 64.2271 70.7119 64.1985 70.7539C64.1699 70.7959 64.1294 70.8285 64.0822 70.8474L24.3402 86.5755C24.3171 86.5804 24.2935 86.5821 24.2699 86.5806ZM24.0439 70.737L24.511 85.9629L63.7608 70.4306V45.1161L24.0439 70.737Z" fill="#282828"/>
<path d="M62.6914 83.7935V94.4798C62.6914 94.4798 38.5168 94.3994 24.2701 86.3144L23.9437 75.5328L60.5271 76.7882L62.6914 83.7935Z" fill="white"/>
<path d="M62.6913 94.7308C62.4453 94.7308 38.2857 94.5551 24.1445 86.5354C24.1079 86.5132 24.0773 86.4823 24.0554 86.4456C24.0335 86.4088 24.021 86.3672 24.0189 86.3244L23.6925 75.5327C23.69 75.4985 23.695 75.4642 23.7072 75.4321C23.7193 75.4 23.7383 75.3709 23.7628 75.3469C23.7871 75.3225 23.8161 75.3033 23.8481 75.2903C23.88 75.2774 23.9142 75.271 23.9486 75.2716L60.537 76.5371C60.5896 76.5392 60.6402 76.5578 60.6817 76.5902C60.7231 76.6227 60.7533 76.6673 60.768 76.7179L62.9324 83.7182C62.9348 83.7432 62.9348 83.7684 62.9324 83.7935V94.4797C62.9309 94.5458 62.9039 94.6088 62.8571 94.6555C62.8358 94.6784 62.8102 94.6968 62.7817 94.7098C62.7533 94.7227 62.7226 94.7299 62.6913 94.7308ZM24.5261 86.1637C37.7936 93.616 59.844 94.1985 62.4503 94.2236V83.8337L60.3412 77.0393L24.1847 75.7989L24.5261 86.1637Z" fill="#282828"/>
<path d="M64.0021 50.5345L23.9437 75.5327C23.9437 75.5327 27.9912 79.4698 40.7213 81.7547C53.4514 84.0396 62.6914 83.7935 62.6914 83.7935L64.0021 50.5345Z" fill="#6784FF"/>
<path d="M61.9531 84.0697C54.8155 83.9893 47.6977 83.3039 40.676 82.0208C28.0162 79.751 23.9335 75.8993 23.7678 75.7336C23.7399 75.7077 23.7185 75.6755 23.7054 75.6397C23.6923 75.6039 23.6879 75.5655 23.6925 75.5277C23.6968 75.4901 23.7094 75.454 23.7294 75.4218C23.7494 75.3897 23.7762 75.3624 23.808 75.3419L63.8764 50.3437C63.9159 50.3203 63.961 50.3079 64.007 50.3079C64.0529 50.3079 64.098 50.3203 64.1375 50.3437C64.1763 50.3672 64.2082 50.4004 64.2302 50.4401C64.2522 50.4797 64.2636 50.5244 64.2631 50.5697L62.9424 83.8286C62.9387 83.8922 62.9114 83.9521 62.8659 83.9967C62.8204 84.0413 62.7599 84.0673 62.6963 84.0697H61.9531ZM24.3654 75.588C25.42 76.4266 29.9696 79.6053 40.7614 81.5237C47.9167 82.8423 55.1745 83.5263 62.4502 83.5675L63.7408 51.0216L24.3654 75.588Z" fill="#282828"/>
<path d="M110.528 78.3098L110.232 82.4728C110.232 82.4728 101.098 88.1926 95.3477 89.9151V85.516L110.528 78.3098Z" fill="white"/>
<path d="M95.3477 90.1661C95.2932 90.1672 95.24 90.1495 95.1971 90.1159C95.1653 90.093 95.1395 90.0628 95.1221 90.0278C95.1046 89.9928 95.0958 89.9541 95.0967 89.915V85.5159C95.0968 85.4683 95.1099 85.4215 95.1347 85.3808C95.1595 85.3401 95.195 85.3069 95.2373 85.2849L110.423 78.0838C110.46 78.0606 110.502 78.0483 110.546 78.0483C110.59 78.0483 110.632 78.0606 110.669 78.0838C110.705 78.108 110.734 78.141 110.753 78.1797C110.773 78.2184 110.782 78.2615 110.78 78.3047L110.483 82.4728C110.48 82.5113 110.468 82.5486 110.448 82.5817C110.428 82.6148 110.4 82.6428 110.368 82.6636C110.277 82.7239 101.138 88.4235 95.418 90.1359C95.3972 90.1512 95.3732 90.1615 95.3477 90.1661ZM95.5988 85.6716V89.5936C100.927 87.8962 108.967 82.9749 109.991 82.3422L110.247 78.7366L95.5988 85.6716Z" fill="#282828"/>
<path d="M95.3477 85.5159C100.755 83.9258 105.878 81.494 110.528 78.3098L70.2943 59.423L95.3477 85.5159Z" fill="#6784FF"/>
<path d="M95.3477 85.7671C95.3136 85.7672 95.2798 85.7601 95.2487 85.7463C95.2175 85.7324 95.1896 85.7121 95.1669 85.6867L70.1134 59.5737C70.0759 59.5286 70.0553 59.4717 70.0553 59.413C70.0553 59.3543 70.0759 59.2974 70.1134 59.2523C70.1484 59.2054 70.1983 59.1718 70.2549 59.1572C70.3116 59.1426 70.3715 59.1478 70.4248 59.1719L110.659 78.0637C110.699 78.0826 110.733 78.1114 110.759 78.1475C110.784 78.1836 110.8 78.2256 110.805 78.2696C110.807 78.313 110.798 78.3563 110.78 78.3957C110.762 78.4351 110.734 78.4694 110.699 78.4956C106.019 81.6877 100.87 84.1309 95.4381 85.7369L95.3477 85.7671ZM71.4141 60.2215L95.423 85.2348C100.606 83.6779 105.527 81.3575 110.026 78.35L71.4141 60.2215Z" fill="#282828"/>
<path d="M95.3478 82.1514V89.915C84.839 93.4241 73.7747 94.9714 62.7065 94.4798V83.7935L95.3478 82.1514Z" fill="white"/>
<path d="M66.8444 94.8414C65.4785 94.8414 64.0891 94.8045 62.6763 94.7309C62.6128 94.7259 62.5534 94.6974 62.5098 94.651C62.4661 94.6045 62.4414 94.5435 62.4403 94.4798V83.7935C62.4402 83.7295 62.4646 83.6678 62.5084 83.6211C62.5523 83.5744 62.6124 83.5463 62.6763 83.5425L95.3176 81.9003C95.3517 81.899 95.3856 81.9045 95.4175 81.9164C95.4495 81.9284 95.4787 81.9466 95.5035 81.97C95.5282 81.9934 95.5481 82.0214 95.5619 82.0526C95.5757 82.0838 95.5831 82.1174 95.5838 82.1514V89.915C95.5838 89.9666 95.5678 90.017 95.5382 90.0592C95.5085 90.1014 95.4666 90.1335 95.4181 90.1511C86.2011 93.2141 76.5569 94.7971 66.8444 94.8414ZM62.9425 94.2387C79.3636 95.0774 93.4295 90.3268 95.0816 89.7192V82.4176L62.9425 84.0346V94.2387Z" fill="#282828"/>
<path d="M64.002 51.3229L95.3678 82.1514C95.3678 82.1514 90.1652 83.914 81.2014 85.3553C75.0791 86.2578 68.8999 86.7193 62.7114 86.7362L64.002 51.3229Z" fill="#6784FF"/>
<path d="M62.8119 86.9873H62.6864C62.6531 86.9868 62.6203 86.9794 62.5901 86.9655C62.5598 86.9517 62.5328 86.9318 62.5106 86.907C62.4862 86.8839 62.4672 86.8558 62.4551 86.8245C62.4429 86.7932 62.4379 86.7596 62.4403 86.7262L63.7309 51.3129C63.7321 51.2642 63.7475 51.2169 63.7751 51.1768C63.8028 51.1367 63.8415 51.1055 63.8866 51.087C63.9324 51.0698 63.9821 51.0659 64.0301 51.0757C64.078 51.0855 64.1223 51.1085 64.1577 51.1422L95.5235 81.9756C95.5529 82.0056 95.5747 82.0423 95.5869 82.0825C95.5992 82.1227 95.6015 82.1653 95.5938 82.2066C95.5834 82.2488 95.5629 82.2877 95.534 82.3201C95.5051 82.3525 95.4687 82.3773 95.4281 82.3924C90.7783 83.8112 86.0298 84.8838 81.2216 85.6013C75.1256 86.4988 68.9736 86.962 62.8119 86.9873ZM64.208 51.9005L62.9525 86.4851C69.0403 86.4519 75.1182 85.9905 81.1412 85.1042C85.7838 84.3968 90.3726 83.3733 94.8757 82.0409L64.208 51.9005Z" fill="#282828"/>
<path d="M37.849 21.1875C37.8062 21.1877 37.7644 21.1755 37.7284 21.1524L16.1099 9.27096C16.0513 9.23899 16.0078 9.18506 15.9889 9.12102C15.9701 9.05698 15.9775 8.98808 16.0094 8.92948C16.0414 8.87088 16.0953 8.82737 16.1594 8.80854C16.2234 8.7897 16.2923 8.79708 16.3509 8.82904L37.9695 20.7155C37.9986 20.7313 38.0242 20.7526 38.045 20.7783C38.0658 20.804 38.0813 20.8336 38.0907 20.8654C38.1 20.8971 38.103 20.9303 38.0994 20.9632C38.0959 20.9961 38.0858 21.028 38.0699 21.057C38.0478 21.0962 38.0158 21.129 37.977 21.1519C37.9382 21.1748 37.894 21.1871 37.849 21.1875Z" fill="#C3C3C3"/>
<path d="M99.0839 18.9177C99.0382 18.9173 98.9935 18.9045 98.9546 18.8806C98.9157 18.8567 98.884 18.8227 98.863 18.7821C98.8326 18.7227 98.8266 18.6537 98.8463 18.5899C98.866 18.5261 98.9098 18.4726 98.9684 18.4406L125.081 4.88194C125.139 4.86011 125.202 4.86012 125.26 4.88194C125.317 4.90376 125.365 4.94588 125.393 5.00034C125.422 5.05479 125.429 5.1178 125.414 5.17742C125.399 5.23704 125.363 5.28914 125.312 5.32385L99.1994 18.8825C99.1647 18.9043 99.1249 18.9164 99.0839 18.9177Z" fill="#C3C3C3"/>
<path d="M26.1281 94.8414C26.0902 94.8419 26.0528 94.8336 26.0188 94.817C25.9847 94.8005 25.9551 94.7761 25.9322 94.7459C25.8912 94.6939 25.8723 94.6278 25.8799 94.5619C25.8874 94.4961 25.9207 94.4359 25.9724 94.3944C26.9767 93.5909 50.5789 74.654 51.4527 74.1568C51.5093 74.1312 51.5734 74.1276 51.6326 74.1465C51.6918 74.1655 51.7419 74.2057 51.7732 74.2594C51.8044 74.3132 51.8146 74.3766 51.8018 74.4374C51.789 74.4982 51.754 74.5521 51.7038 74.5887C51.0459 74.9754 34.7906 87.9666 26.2837 94.7861C26.2407 94.8235 26.1851 94.8433 26.1281 94.8414Z" fill="#C3C3C3"/>
<path d="M21.3173 95.3635H11.0679C11.0017 95.3623 10.9386 95.3354 10.8918 95.2886C10.845 95.2418 10.8181 95.1787 10.8168 95.1125C10.8168 95.0459 10.8433 94.982 10.8904 94.9349C10.9375 94.8878 11.0013 94.8614 11.0679 94.8614H21.3173C21.3839 94.8614 21.4478 94.8878 21.4949 94.9349C21.5419 94.982 21.5684 95.0459 21.5684 95.1125C21.5671 95.1787 21.5402 95.2418 21.4934 95.2886C21.4466 95.3354 21.3835 95.3623 21.3173 95.3635Z" fill="#C3C3C3"/>
<path d="M21.3173 92.6066H11.0679C11.0013 92.6066 10.9375 92.5802 10.8904 92.5331C10.8433 92.486 10.8168 92.4221 10.8168 92.3555C10.8168 92.2889 10.8433 92.2251 10.8904 92.178C10.9375 92.1309 11.0013 92.1044 11.0679 92.1044H21.3173C21.3839 92.1044 21.4478 92.1309 21.4949 92.178C21.5419 92.2251 21.5684 92.2889 21.5684 92.3555C21.5684 92.4221 21.5419 92.486 21.4949 92.5331C21.4478 92.5802 21.3839 92.6066 21.3173 92.6066Z" fill="#C3C3C3"/>
<path d="M21.3173 89.7995H11.0679C11.0013 89.7995 10.9375 89.773 10.8904 89.7259C10.8433 89.6789 10.8168 89.615 10.8168 89.5484C10.8181 89.4822 10.845 89.4191 10.8918 89.3723C10.9386 89.3255 11.0017 89.2986 11.0679 89.2973H21.3173C21.3835 89.2986 21.4466 89.3255 21.4934 89.3723C21.5402 89.4191 21.5671 89.4822 21.5684 89.5484C21.5684 89.615 21.5419 89.6789 21.4949 89.7259C21.4478 89.773 21.3839 89.7995 21.3173 89.7995Z" fill="#C3C3C3"/>
<path d="M17.3803 98H11.0679C11.0013 98 10.9375 97.9735 10.8904 97.9264C10.8433 97.8794 10.8168 97.8155 10.8168 97.7489C10.8181 97.6827 10.845 97.6196 10.8918 97.5728C10.9386 97.526 11.0017 97.4991 11.0679 97.4978H17.3803C17.4469 97.4978 17.5107 97.5243 17.5578 97.5713C17.6049 97.6184 17.6314 97.6823 17.6314 97.7489C17.6314 97.8155 17.6049 97.8794 17.5578 97.9264C17.5107 97.9735 17.4469 98 17.3803 98Z" fill="#C3C3C3"/>
<path d="M12.0371 4.02323H0.251087C0.184494 4.02323 0.120629 3.99677 0.0735414 3.94969C0.0264535 3.9026 0 3.83873 0 3.77214C0 3.70555 0.0264535 3.64169 0.0735414 3.5946C0.120629 3.54751 0.184494 3.52106 0.251087 3.52106H12.0371C12.1037 3.52106 12.1676 3.54751 12.2146 3.5946C12.2617 3.64169 12.2882 3.70555 12.2882 3.77214C12.2882 3.83873 12.2617 3.9026 12.2146 3.94969C12.1676 3.99677 12.1037 4.02323 12.0371 4.02323Z" fill="#C3C3C3"/>
<path d="M12.0371 6.66462H0.251087C0.184897 6.66333 0.121775 6.63647 0.0749628 6.58966C0.0281507 6.54284 0.0012856 6.47972 0 6.41353C0 6.34694 0.0264535 6.28307 0.0735414 6.23599C0.120629 6.1889 0.184494 6.16245 0.251087 6.16245H12.0371C12.1037 6.16245 12.1676 6.1889 12.2146 6.23599C12.2617 6.28307 12.2882 6.34694 12.2882 6.41353C12.2869 6.47972 12.26 6.54284 12.2132 6.58966C12.1664 6.63647 12.1033 6.66333 12.0371 6.66462Z" fill="#C3C3C3"/>
<path d="M7.51252 9.30109H0.251087C0.184494 9.30109 0.120629 9.27464 0.0735414 9.22755C0.0264535 9.18046 0 9.1166 0 9.05001C0.0012856 8.98382 0.0281507 8.92069 0.0749628 8.87388C0.121775 8.82707 0.184897 8.80021 0.251087 8.79892H7.51252C7.57911 8.79892 7.64297 8.82537 7.69006 8.87246C7.73715 8.91955 7.7636 8.98341 7.7636 9.05001C7.7636 9.1166 7.73715 9.18046 7.69006 9.22755C7.64297 9.27464 7.57911 9.30109 7.51252 9.30109Z" fill="#C3C3C3"/>
<path d="M142.07 4.02323H130.289C130.222 4.02323 130.159 3.99677 130.111 3.94969C130.064 3.9026 130.038 3.83873 130.038 3.77214C130.038 3.70555 130.064 3.64169 130.111 3.5946C130.159 3.54751 130.222 3.52106 130.289 3.52106H142.07C142.137 3.52106 142.2 3.54751 142.248 3.5946C142.295 3.64169 142.321 3.70555 142.321 3.77214C142.321 3.83873 142.295 3.9026 142.248 3.94969C142.2 3.99677 142.137 4.02323 142.07 4.02323Z" fill="#C3C3C3"/>
<path d="M142.07 6.66462H130.289C130.222 6.66462 130.159 6.63817 130.111 6.59108C130.064 6.54399 130.038 6.48012 130.038 6.41353C130.038 6.34694 130.064 6.28307 130.111 6.23599C130.159 6.1889 130.222 6.16245 130.289 6.16245H142.07C142.137 6.16245 142.2 6.1889 142.248 6.23599C142.295 6.28307 142.321 6.34694 142.321 6.41353C142.321 6.48012 142.295 6.54399 142.248 6.59108C142.2 6.63817 142.137 6.66462 142.07 6.66462Z" fill="#C3C3C3"/>
<path d="M137.545 9.30109H130.289C130.222 9.30109 130.159 9.27464 130.111 9.22755C130.064 9.18046 130.038 9.1166 130.038 9.05001C130.038 8.98341 130.064 8.91955 130.111 8.87246C130.159 8.82537 130.222 8.79892 130.289 8.79892H137.545C137.612 8.79892 137.676 8.82537 137.723 8.87246C137.77 8.91955 137.797 8.98341 137.797 9.05001C137.797 9.1166 137.77 9.18046 137.723 9.22755C137.676 9.27464 137.612 9.30109 137.545 9.30109Z" fill="#C3C3C3"/>
<path d="M128.496 96.6843H110.528C110.462 96.6843 110.398 96.6579 110.351 96.6108C110.304 96.5637 110.277 96.4998 110.277 96.4332V88.3733C110.277 88.3067 110.304 88.2429 110.351 88.1958C110.398 88.1487 110.462 88.1223 110.528 88.1223H128.496C128.563 88.1223 128.627 88.1487 128.674 88.1958C128.721 88.2429 128.747 88.3067 128.747 88.3733V96.4332C128.747 96.4998 128.721 96.5637 128.674 96.6108C128.627 96.6579 128.563 96.6843 128.496 96.6843ZM110.78 96.1821H128.245V88.6244H110.78V96.1821Z" fill="#C3C3C3"/>
<path d="M125.192 91.311H113.592C113.525 91.311 113.461 91.2846 113.414 91.2375C113.367 91.1904 113.341 91.1265 113.341 91.0599C113.341 90.9933 113.367 90.9295 113.414 90.8824C113.461 90.8353 113.525 90.8088 113.592 90.8088H125.192C125.258 90.8088 125.322 90.8353 125.369 90.8824C125.417 90.9295 125.443 90.9933 125.443 91.0599C125.443 91.1265 125.417 91.1904 125.369 91.2375C125.322 91.2846 125.258 91.311 125.192 91.311Z" fill="#C3C3C3"/>
<path d="M125.192 94.2337H113.592C113.525 94.2337 113.461 94.2072 113.414 94.1601C113.367 94.113 113.341 94.0492 113.341 93.9826C113.341 93.916 113.367 93.8521 113.414 93.805C113.461 93.758 113.525 93.7315 113.592 93.7315H125.192C125.258 93.7315 125.322 93.758 125.369 93.805C125.417 93.8521 125.443 93.916 125.443 93.9826C125.443 94.0492 125.417 94.113 125.369 94.1601C125.322 94.2072 125.258 94.2337 125.192 94.2337Z" fill="#C3C3C3"/>
</svg>
